<mxfile host="app.diagrams.net" agent="Mozilla/5.0 (Macintosh; Intel Mac OS X 10_15_7) AppleWebKit/537.36 (KHTML, like Gecko) Chrome/133.0.0.0 Safari/537.36" version="26.0.14">
  <diagram name="第 1 页" id="752u-f7Yjkx3OtLUOCj3">
    <mxGraphModel dx="658" dy="434" grid="1" gridSize="10" guides="1" tooltips="1" connect="1" arrows="1" fold="1" page="1" pageScale="1" pageWidth="827" pageHeight="1169" math="0" shadow="0">
      <root>
        <mxCell id="0" />
        <mxCell id="1" parent="0" />
        <mxCell id="rI_YomH8ywqovsCWZQNp-4" value="&lt;p style=&quot;margin: 0px; font-variant-numeric: normal; font-variant-east-asian: normal; font-variant-alternates: normal; font-size-adjust: none; font-kerning: auto; font-optical-sizing: auto; font-feature-settings: normal; font-variation-settings: normal; font-variant-position: normal; font-variant-emoji: normal; font-stretch: normal; line-height: normal; text-align: start;&quot; class=&quot;p1&quot;&gt;&lt;b&gt;Abstract CoffeeTemplate&lt;/b&gt;&lt;/p&gt;" style="swimlane;fontStyle=0;childLayout=stackLayout;horizontal=1;startSize=26;fillColor=#dae8fc;horizontalStack=0;resizeParent=1;resizeParentMax=0;resizeLast=0;collapsible=1;marginBottom=0;whiteSpace=wrap;html=1;fontFamily=Times New Roman;strokeColor=#6c8ebf;fontSize=11;" vertex="1" parent="1">
          <mxGeometry x="290" y="200" width="140" height="104" as="geometry" />
        </mxCell>
        <mxCell id="rI_YomH8ywqovsCWZQNp-5" value="&lt;p style=&quot;margin: 0px; font-variant-numeric: normal; font-variant-east-asian: normal; font-variant-alternates: normal; font-size-adjust: none; font-kerning: auto; font-optical-sizing: auto; font-feature-settings: normal; font-variation-settings: normal; font-variant-position: normal; font-variant-emoji: normal; font-stretch: normal; line-height: normal;&quot; class=&quot;p1&quot;&gt;boilWater();&lt;/p&gt;" style="text;strokeColor=none;fillColor=none;align=left;verticalAlign=top;spacingLeft=4;spacingRight=4;overflow=hidden;rotatable=0;points=[[0,0.5],[1,0.5]];portConstraint=eastwest;whiteSpace=wrap;html=1;fontColor=default;fontFamily=Times New Roman;fontSize=11;" vertex="1" parent="rI_YomH8ywqovsCWZQNp-4">
          <mxGeometry y="26" width="140" height="26" as="geometry" />
        </mxCell>
        <mxCell id="rI_YomH8ywqovsCWZQNp-6" value="&lt;p style=&quot;margin: 0px; font-variant-numeric: normal; font-variant-east-asian: normal; font-variant-alternates: normal; font-size-adjust: none; font-kerning: auto; font-optical-sizing: auto; font-feature-settings: normal; font-variation-settings: normal; font-variant-position: normal; font-variant-emoji: normal; font-stretch: normal; line-height: normal;&quot; class=&quot;p1&quot;&gt;pourInCup();&lt;/p&gt;" style="text;strokeColor=none;fillColor=none;align=left;verticalAlign=top;spacingLeft=4;spacingRight=4;overflow=hidden;rotatable=0;points=[[0,0.5],[1,0.5]];portConstraint=eastwest;whiteSpace=wrap;html=1;fontColor=default;fontFamily=Times New Roman;fontSize=11;" vertex="1" parent="rI_YomH8ywqovsCWZQNp-4">
          <mxGeometry y="52" width="140" height="26" as="geometry" />
        </mxCell>
        <mxCell id="rI_YomH8ywqovsCWZQNp-7" value="&lt;font style=&quot;font-size: 10px;&quot;&gt;abstract addCustomerWants();&lt;/font&gt;" style="text;strokeColor=none;fillColor=none;align=left;verticalAlign=top;spacingLeft=4;spacingRight=4;overflow=hidden;rotatable=0;points=[[0,0.5],[1,0.5]];portConstraint=eastwest;whiteSpace=wrap;html=1;fontColor=default;fontFamily=Times New Roman;fontSize=11;" vertex="1" parent="rI_YomH8ywqovsCWZQNp-4">
          <mxGeometry y="78" width="140" height="26" as="geometry" />
        </mxCell>
        <mxCell id="rI_YomH8ywqovsCWZQNp-16" style="rounded=0;orthogonalLoop=1;jettySize=auto;html=1;entryX=0.5;entryY=1;entryDx=0;entryDy=0;exitX=0.5;exitY=0;exitDx=0;exitDy=0;fontColor=default;fontFamily=Times New Roman;fontSize=11;" edge="1" parent="1" source="rI_YomH8ywqovsCWZQNp-8" target="rI_YomH8ywqovsCWZQNp-4">
          <mxGeometry relative="1" as="geometry" />
        </mxCell>
        <mxCell id="rI_YomH8ywqovsCWZQNp-19" value="extends" style="edgeLabel;html=1;align=center;verticalAlign=middle;resizable=0;points=[];fontFamily=Times New Roman;" vertex="1" connectable="0" parent="rI_YomH8ywqovsCWZQNp-16">
          <mxGeometry x="-0.1632" y="2" relative="1" as="geometry">
            <mxPoint as="offset" />
          </mxGeometry>
        </mxCell>
        <mxCell id="rI_YomH8ywqovsCWZQNp-8" value="&lt;b&gt;Latte&lt;/b&gt;" style="swimlane;fontStyle=0;childLayout=stackLayout;horizontal=1;startSize=26;fillColor=#ffe6cc;horizontalStack=0;resizeParent=1;resizeParentMax=0;resizeLast=0;collapsible=1;marginBottom=0;whiteSpace=wrap;html=1;fontFamily=Times New Roman;strokeColor=#d79b00;fontSize=11;" vertex="1" parent="1">
          <mxGeometry x="160" y="390" width="140" height="104" as="geometry" />
        </mxCell>
        <mxCell id="rI_YomH8ywqovsCWZQNp-9" value="boilWater();" style="text;strokeColor=none;fillColor=none;align=left;verticalAlign=top;spacingLeft=4;spacingRight=4;overflow=hidden;rotatable=0;points=[[0,0.5],[1,0.5]];portConstraint=eastwest;whiteSpace=wrap;html=1;fontColor=default;fontFamily=Times New Roman;fontSize=11;" vertex="1" parent="rI_YomH8ywqovsCWZQNp-8">
          <mxGeometry y="26" width="140" height="26" as="geometry" />
        </mxCell>
        <mxCell id="rI_YomH8ywqovsCWZQNp-10" value="pourInCup();" style="text;strokeColor=none;fillColor=none;align=left;verticalAlign=top;spacingLeft=4;spacingRight=4;overflow=hidden;rotatable=0;points=[[0,0.5],[1,0.5]];portConstraint=eastwest;whiteSpace=wrap;html=1;fontColor=default;fontFamily=Times New Roman;fontSize=11;" vertex="1" parent="rI_YomH8ywqovsCWZQNp-8">
          <mxGeometry y="52" width="140" height="26" as="geometry" />
        </mxCell>
        <mxCell id="rI_YomH8ywqovsCWZQNp-11" value="addMilk();" style="text;strokeColor=none;fillColor=none;align=left;verticalAlign=top;spacingLeft=4;spacingRight=4;overflow=hidden;rotatable=0;points=[[0,0.5],[1,0.5]];portConstraint=eastwest;whiteSpace=wrap;html=1;fontColor=default;fontFamily=Times New Roman;fontSize=11;" vertex="1" parent="rI_YomH8ywqovsCWZQNp-8">
          <mxGeometry y="78" width="140" height="26" as="geometry" />
        </mxCell>
        <mxCell id="rI_YomH8ywqovsCWZQNp-17" style="rounded=0;orthogonalLoop=1;jettySize=auto;html=1;entryX=0.5;entryY=1;entryDx=0;entryDy=0;exitX=0.5;exitY=0;exitDx=0;exitDy=0;fontColor=default;fontFamily=Times New Roman;fontSize=11;" edge="1" parent="1" source="rI_YomH8ywqovsCWZQNp-12" target="rI_YomH8ywqovsCWZQNp-4">
          <mxGeometry relative="1" as="geometry">
            <mxPoint x="360" y="310" as="targetPoint" />
          </mxGeometry>
        </mxCell>
        <mxCell id="rI_YomH8ywqovsCWZQNp-20" value="extends" style="edgeLabel;html=1;align=center;verticalAlign=middle;resizable=0;points=[];fontFamily=Times New Roman;" vertex="1" connectable="0" parent="rI_YomH8ywqovsCWZQNp-17">
          <mxGeometry x="0.2095" y="-1" relative="1" as="geometry">
            <mxPoint x="10" y="13" as="offset" />
          </mxGeometry>
        </mxCell>
        <mxCell id="rI_YomH8ywqovsCWZQNp-12" value="&lt;b&gt;Americano&lt;/b&gt;" style="swimlane;fontStyle=0;childLayout=stackLayout;horizontal=1;startSize=26;fillColor=#f8cecc;horizontalStack=0;resizeParent=1;resizeParentMax=0;resizeLast=0;collapsible=1;marginBottom=0;whiteSpace=wrap;html=1;fontFamily=Times New Roman;strokeColor=#b85450;fontSize=11;" vertex="1" parent="1">
          <mxGeometry x="400" y="390" width="140" height="104" as="geometry" />
        </mxCell>
        <mxCell id="rI_YomH8ywqovsCWZQNp-13" value="boilWater();" style="text;strokeColor=none;fillColor=none;align=left;verticalAlign=top;spacingLeft=4;spacingRight=4;overflow=hidden;rotatable=0;points=[[0,0.5],[1,0.5]];portConstraint=eastwest;whiteSpace=wrap;html=1;fontColor=default;fontFamily=Times New Roman;fontSize=11;" vertex="1" parent="rI_YomH8ywqovsCWZQNp-12">
          <mxGeometry y="26" width="140" height="26" as="geometry" />
        </mxCell>
        <mxCell id="rI_YomH8ywqovsCWZQNp-14" value="pourInCup();" style="text;strokeColor=none;fillColor=none;align=left;verticalAlign=top;spacingLeft=4;spacingRight=4;overflow=hidden;rotatable=0;points=[[0,0.5],[1,0.5]];portConstraint=eastwest;whiteSpace=wrap;html=1;fontColor=default;fontFamily=Times New Roman;fontSize=11;" vertex="1" parent="rI_YomH8ywqovsCWZQNp-12">
          <mxGeometry y="52" width="140" height="26" as="geometry" />
        </mxCell>
        <mxCell id="rI_YomH8ywqovsCWZQNp-15" value="addIce();" style="text;strokeColor=none;fillColor=none;align=left;verticalAlign=top;spacingLeft=4;spacingRight=4;overflow=hidden;rotatable=0;points=[[0,0.5],[1,0.5]];portConstraint=eastwest;whiteSpace=wrap;html=1;fontColor=default;fontFamily=Times New Roman;fontSize=11;" vertex="1" parent="rI_YomH8ywqovsCWZQNp-12">
          <mxGeometry y="78" width="140" height="26" as="geometry" />
        </mxCell>
      </root>
    </mxGraphModel>
  </diagram>
</mxfile>
